<svg xmlns="http://www.w3.org/2000/svg" viewBox="0 0 400 400"><defs><radialGradient id="coreGlow" cx="50%" cy="50%"><stop offset="0%" stop-color="#ff4500" stop-opacity="1"/><stop offset="50%" stop-color="#ffd700" stop-opacity="0.6"/><stop offset="100%" stop-color="#ff4500" stop-opacity="0"/></radialGradient><linearGradient id="breathGrad" x1="0%" y1="100%" x2="100%" y2="0%"><stop offset="0%" stop-color="#ff4500"/><stop offset="100%" stop-color="#ffd700"/></linearGradient><filter id="glow" x="-50%" y="-50%" width="200%" height="200%"><feGaussianBlur stdDeviation="4" result="blur"/><feFlood flood-color="#ff6347" flood-opacity="0.8"/><feComposite in2="blur" operator="in"/><feMerge><feMergeNode/><feMergeNode in="SourceGraphic"/></feMerge></filter></defs><rect width="400" height="400" fill="#1a0a0a"/><path d="M50,204 C114,182 324,170 374,192" fill="none" stroke="url(#breathGrad)" stroke-width="3" opacity="0.64" filter="url(#glow)"/><path d="M50,218 C152,200 282,172 372,190" fill="none" stroke="url(#breathGrad)" stroke-width="5" opacity="0.62" filter="url(#glow)"/><path d="M50,200 C142,158 288,202 372,188" fill="none" stroke="url(#breathGrad)" stroke-width="7" opacity="0.68" filter="url(#glow)"/><path d="M50,198 C100,150 250,150 350,180" fill="none" stroke="url(#breathGrad)" stroke-width="9" opacity="0.30" filter="url(#glow)"/><path d="M50,180 C100,150 250,150 350,180" fill="none" stroke="url(#breathGrad)" stroke-width="11" opacity="0.30" filter="url(#glow)"/><circle cx="274" cy="289" r="4" fill="#ff4500" opacity="0.79" filter="url(#glow)"/><circle cx="71" cy="238" r="7" fill="#ffd700" opacity="0.78" filter="url(#glow)"/><circle cx="152" cy="187" r="4" fill="#ff4500" opacity="0.77" filter="url(#glow)"/><circle cx="233" cy="136" r="7" fill="#ffd700" opacity="0.76" filter="url(#glow)"/><circle cx="314" cy="85" r="4" fill="#ff4500" opacity="0.75" filter="url(#glow)"/><circle cx="291" cy="290" r="5" fill="#ffd700" opacity="0.80" filter="url(#glow)"/><circle cx="344" cy="255" r="2" fill="#ff4500" opacity="0.45" filter="url(#glow)"/><circle cx="125" cy="204" r="5" fill="#ffd700" opacity="0.44" filter="url(#glow)"/><circle cx="206" cy="153" r="2" fill="#ff4500" opacity="0.43" filter="url(#glow)"/><circle cx="287" cy="102" r="5" fill="#ffd700" opacity="0.42" filter="url(#glow)"/><circle cx="68" cy="51" r="2" fill="#ff4500" opacity="0.41" filter="url(#glow)"/><circle cx="50" cy="50" r="2" fill="#ffd700" opacity="0.40" filter="url(#glow)"/><circle cx="50" cy="50" r="2" fill="#ff4500" opacity="0.40" filter="url(#glow)"/><circle cx="50" cy="50" r="2" fill="#ffd700" opacity="0.40" filter="url(#glow)"/><circle cx="50" cy="50" r="2" fill="#ff4500" opacity="0.40" filter="url(#glow)"/><circle cx="50" cy="50" r="2" fill="#ffd700" opacity="0.40" filter="url(#glow)"/><circle cx="50" cy="50" r="2" fill="#ff4500" opacity="0.40" filter="url(#glow)"/><circle cx="50" cy="50" r="2" fill="#ffd700" opacity="0.40" filter="url(#glow)"/><circle cx="50" cy="50" r="2" fill="#ff4500" opacity="0.40" filter="url(#glow)"/><circle cx="50" cy="50" r="2" fill="#ffd700" opacity="0.40" filter="url(#glow)"/><circle cx="45" cy="200" r="28" fill="url(#coreGlow)" filter="url(#glow)"/><circle cx="45" cy="200" r="9" fill="#ff6347" opacity="0.9"/></svg>
